<?xml version="1.0" encoding="UTF-8" standalone="no"?>
<!-- Created with Inkscape (http://www.inkscape.org/) -->

<svg
   xmlns:dc="http://purl.org/dc/elements/1.1/"
   xmlns:cc="http://creativecommons.org/ns#"
   xmlns:rdf="http://www.w3.org/1999/02/22-rdf-syntax-ns#"
   xmlns:svg="http://www.w3.org/2000/svg"
   xmlns="http://www.w3.org/2000/svg"
   xmlns:sodipodi="http://sodipodi.sourceforge.net/DTD/sodipodi-0.dtd"
   xmlns:inkscape="http://www.inkscape.org/namespaces/inkscape"
   width="16"
   height="16"
   viewBox="0 0 16 16"
   id="svg4157"
   version="1.1"
   inkscape:version="0.91 r13725"
   sodipodi:docname="drawing.svg">
  <defs
     id="defs4159" />
  <sodipodi:namedview
     id="base"
     pagecolor="#ffffff"
     bordercolor="#666666"
     borderopacity="1.0"
     inkscape:pageopacity="0.0"
     inkscape:pageshadow="2"
     inkscape:zoom="39.4375"
     inkscape:cx="8"
     inkscape:cy="9.0142631"
     inkscape:document-units="px"
     inkscape:current-layer="layer1"
     showgrid="false"
     inkscape:window-width="1536"
     inkscape:window-height="801"
     inkscape:window-x="-8"
     inkscape:window-y="-8"
     inkscape:window-maximized="1"
     units="px" />
  <metadata
     id="metadata4162">
    <rdf:RDF>
      <cc:Work
         rdf:about="">
        <dc:format>image/svg+xml</dc:format>
        <dc:type
           rdf:resource="http://purl.org/dc/dcmitype/StillImage" />
        <dc:title></dc:title>
      </cc:Work>
    </rdf:RDF>
  </metadata>
  <g
     inkscape:label="Layer 1"
     inkscape:groupmode="layer"
     id="layer1"
     transform="translate(0,-1036.3622)">
    <ellipse
       style="opacity:1;fill:#003eff;fill-opacity:0;stroke:#003eff;stroke-width:0.49998337;stroke-miterlimit:4;stroke-dasharray:none;stroke-opacity:1"
       id="path4158"
       cx="8.9615002"
       cy="1044.9827"
       rx="4.4555082"
       ry="4.5695086" />
    <path
       style="fill:#003eff;fill-opacity:1"
       d="m 7.8246721,1048.009 c -0.1606399,-0.1598 -0.06844,-0.292 0.4313259,-0.6185 0.2790926,-0.1823 0.5074407,-0.3563 0.5074407,-0.3868 0,-0.029 -0.283578,-0.055 -0.6301735,-0.055 -0.3465929,0 -0.7105248,-0.029 -0.8087326,-0.066 -0.2191798,-0.083 -0.5081584,-0.3481 -0.6288756,-0.578 -0.083643,-0.1594 -0.2124056,-1.5229 -0.2147643,-2.2744 l -9.678e-4,-0.2998 0.2474639,0 0.2474635,0 0.039451,0.7417 c 0.072535,1.3638 0.096512,1.517 0.2693243,1.7214 l 0.1590255,0.1881 1.513149,0 c 1.4866079,0 1.5161159,0 1.6824149,-0.145 0.145346,-0.1245 0.176737,-0.2159 0.222123,-0.647 0.02908,-0.276 0.05439,-0.7186 0.05627,-0.9834 0.002,-0.2647 0.02128,-0.57 0.04307,-0.6786 0.03626,-0.1803 0.06076,-0.1972 0.28656,-0.1972 l 0.246918,0 -0.03796,0.7102 c -0.08042,1.5048 -0.124443,1.7949 -0.308689,2.0353 -0.283978,0.3704 -0.567558,0.4737 -1.3022679,0.4737 -0.350255,0 -0.6368265,0.024 -0.6368265,0.055 0,0.029 0.228348,0.2042 0.5074415,0.3865 0.5136279,0.3356 0.6033729,0.4735 0.4114309,0.6318 -0.07948,0.066 -0.1603067,0.04 -0.4694289,-0.15 -0.2053809,-0.1262 -0.3905249,-0.2293 -0.4114335,-0.2293 -0.020898,0 -0.03802,0.068 -0.03802,0.1501 0,0.1791 -0.1503511,0.3205 -0.285916,0.2687 -0.053482,-0.02 -0.1145028,-0.1231 -0.1355959,-0.228 -0.021106,-0.1059 -0.04764,-0.1908 -0.058969,-0.1908 -0.011366,0 -0.1861631,0.099 -0.3885099,0.2206 -0.4163192,0.25 -0.4104649,0.2483 -0.5137888,0.1453 z m 0.8678051,-2.4126 -0.4184746,-0.2795 -0.3013444,0.2478 c -0.3404041,0.2799 -0.512178,0.3122 -0.5771875,0.1083 -0.036712,-0.1153 0.023675,-0.2033 0.3462799,-0.5051 0.2149194,-0.201 0.4379637,-0.3654 0.4956558,-0.3654 0.057697,0 0.2869526,0.1184 0.5094709,0.2622 0.3446095,0.2235 0.4170353,0.2491 0.4886114,0.1736 0.046222,-0.049 0.3059847,-0.3444 0.5772617,-0.6568 0.4984496,-0.574 0.6761016,-0.6761 0.8097756,-0.4652 0.07427,0.1173 0.07193,0.1204 -0.7705626,1.1114 -0.302154,0.3553 -0.5924888,0.6463 -0.6451917,0.6468 -0.052711,0 -0.2841351,-0.1248 -0.5142945,-0.2782 z m -2.1860598,-2.249 c -0.3462986,-0.1025 -0.4480752,-0.5296 -0.1879244,-0.7884 0.1519715,-0.1513 0.1793021,-0.1549 1.1433131,-0.1549 l 0.9876219,0 0.058822,-0.154 c 0.071887,-0.1881 0.2467221,-0.2879 0.5047376,-0.2879 0.2064569,0 0.4481799,0.1872 0.4481799,0.3472 0,0.08 0.1505781,0.094 0.9746135,0.094 0.889946,0 0.989132,0.012 1.141744,0.1308 0.216459,0.1694 0.233941,0.5468 0.0337,0.7273 -0.125746,0.1141 -0.271176,0.121 -2.5213494,0.1317 -1.3133507,0.012 -2.475903,-0.014 -2.5834489,-0.047 z"
       id="path4182"
       inkscape:connector-curvature="0" />
  </g>
</svg>
