<?xml version="1.0" encoding="UTF-8" standalone="no"?>
<!-- Created with Inkscape (http://www.inkscape.org/) -->

<svg
   xmlns:dc="http://purl.org/dc/elements/1.1/"
   xmlns:cc="http://creativecommons.org/ns#"
   xmlns:rdf="http://www.w3.org/1999/02/22-rdf-syntax-ns#"
   xmlns:svg="http://www.w3.org/2000/svg"
   xmlns="http://www.w3.org/2000/svg"
   xmlns:sodipodi="http://sodipodi.sourceforge.net/DTD/sodipodi-0.dtd"
   xmlns:inkscape="http://www.inkscape.org/namespaces/inkscape"
   width="16"
   height="16"
   viewBox="0 0 16 16"
   id="svg5414"
   version="1.1"
   inkscape:version="0.91 r13725"
   sodipodi:docname="future.svg">
  <defs
     id="defs5416" />
  <sodipodi:namedview
     id="base"
     pagecolor="#ffffff"
     bordercolor="#666666"
     borderopacity="1.0"
     inkscape:pageopacity="0.0"
     inkscape:pageshadow="2"
     inkscape:zoom="39.5"
     inkscape:cx="4.2658228"
     inkscape:cy="9.0126582"
     inkscape:document-units="px"
     inkscape:current-layer="layer1"
     showgrid="false"
     units="px"
     inkscape:window-width="1536"
     inkscape:window-height="801"
     inkscape:window-x="-8"
     inkscape:window-y="-8"
     inkscape:window-maximized="1" />
  <metadata
     id="metadata5419">
    <rdf:RDF>
      <cc:Work
         rdf:about="">
        <dc:format>image/svg+xml</dc:format>
        <dc:type
           rdf:resource="http://purl.org/dc/dcmitype/StillImage" />
        <dc:title></dc:title>
      </cc:Work>
    </rdf:RDF>
  </metadata>
  <g
     inkscape:label="Layer 1"
     inkscape:groupmode="layer"
     id="layer1"
     transform="translate(0,-1036.3622)">
    <ellipse
       style="opacity:1;fill:#003eff;fill-opacity:0;stroke:#003eff;stroke-width:0.49998957;stroke-miterlimit:4;stroke-dasharray:none;stroke-opacity:1"
       id="path4158"
       cx="8.9615002"
       cy="1044.9825"
       rx="4.4555054"
       ry="4.5696254" />
    <path
       style="fill:#003eff;fill-opacity:1"
       d="m 8.6727002,1048.2385 c -0.544692,-0.092 -1.035715,-0.3233 -1.457326,-0.6871 -0.600988,-0.5185 -0.998209,-1.261 -1.107846,-2.0708 -0.0087,-0.064 -0.02768,-0.2525 -0.02768,-0.2747 0,0 -0.118172,0 -0.262603,0 -0.155126,0 -0.262602,0 -0.262602,-0.01 0,-0.01 0.848406,-1.5274 0.857022,-1.5376 0.0023,0 0.0974,0.1619 0.211291,0.3659 0.113888,0.204 0.306963,0.5498 0.429056,0.7684 0.122092,0.2186 0.221986,0.4 0.221986,0.4031 0,0 -0.106614,0.01 -0.277184,0.01 l -0.277184,0 0.0038,0.052 c 0.01759,0.2411 0.09238,0.552 0.190092,0.7902 0.323204,0.788 0.993169,1.3502 1.792352,1.5041 0.158019,0.03 0.226414,0.036 0.425692,0.036 0.200253,10e-5 0.256617,0 0.411871,-0.033 0.8107428,-0.1488 1.5088908,-0.7476 1.8313068,-1.5705 0.134555,-0.3434 0.195638,-0.69 0.187687,-1.065 -0.0044,-0.2088 -0.02286,-0.3606 -0.06769,-0.5573 -0.21007,-0.9219 -0.914495,-1.6824 -1.7707608,-1.9118 -0.159177,-0.043 -0.283623,-0.062 -0.467655,-0.072 -0.143086,-0.01 -0.18607,-0.016 -0.244508,-0.047 -0.07097,-0.038 -0.111916,-0.095 -0.131679,-0.1855 -0.01064,-0.049 -0.01068,-0.1574 -9e-5,-0.2058 0.02765,-0.1262 0.120919,-0.2238 0.234641,-0.2457 0.068,-0.013 0.322605,0.01 0.508916,0.04 0.9116808,0.1608 1.7210948,0.7749 2.1714888,1.6475 0.208286,0.4036 0.329762,0.8244 0.375236,1.3 0.01335,0.1397 0.01338,0.465 5.5e-5,0.6039 -0.05387,0.5613 -0.212414,1.0486 -0.488784,1.5024 -0.121396,0.1993 -0.229466,0.3411 -0.39919,0.5239 -0.257047,0.2769 -0.494014,0.46 -0.815707,0.6304 -0.293411,0.1554 -0.5715378,0.249 -0.9011408,0.3033 -0.06665,0.011 -0.09876,0.012 -0.442278,0.011 -0.356573,-5e-4 -0.373402,0 -0.450571,-0.014 z m 0.402908,-1.1971 c -0.05436,-0.02 -0.106133,-0.08 -0.121722,-0.1418 -0.0033,-0.013 -0.0049,-0.043 -0.0035,-0.066 0.0033,-0.056 0.02264,-0.099 0.06246,-0.1379 0.03784,-0.037 0.07364,-0.051 0.129738,-0.051 0.07354,3e-4 0.133748,0.042 0.167183,0.1147 0.01617,0.035 0.01799,0.045 0.01776,0.09 -3.24e-4,0.063 -0.01643,0.1034 -0.05935,0.1471 -0.05043,0.051 -0.1263,0.069 -0.192605,0.045 z m -0.827329,-0.6394 c -0.121464,-0.019 -0.215566,-0.118 -0.242339,-0.2551 -0.01464,-0.075 -0.0022,-0.1566 0.03443,-0.2256 0.009,-0.017 0.169809,-0.1947 0.422827,-0.4675 l 0.408373,-0.4403 0.0015,-0.8984 0.0015,-0.8984 0.01302,-0.035 c 0.03036,-0.081 0.09061,-0.1479 0.159332,-0.177 0.0265,-0.011 0.04565,-0.014 0.108241,-0.016 0.06523,0 0.08138,-7e-4 0.113563,0.01 0.0726,0.024 0.134127,0.08 0.1671,0.152 0.03429,0.075 0.03286,0.029 0.03291,1.0626 3.3e-5,0.6181 -0.0019,0.9563 -0.0056,0.9817 -0.0031,0.021 -0.01443,0.059 -0.0251,0.083 -0.01899,0.044 -0.02983,0.056 -0.498738,0.5601 -0.446559,0.4802 -0.481825,0.5167 -0.515796,0.5338 -0.05619,0.028 -0.117522,0.039 -0.17511,0.03 z m 2.0873978,-0.01 c -0.07885,-0.035 -0.125297,-0.115 -0.119273,-0.2056 0.0014,-0.021 0.0078,-0.052 0.0141,-0.067 0.016,-0.039 0.05757,-0.085 0.09451,-0.1039 0.02681,-0.014 0.03797,-0.016 0.08086,-0.016 0.04362,0 0.05361,0 0.08102,0.017 0.03864,0.021 0.07099,0.056 0.09127,0.099 0.01349,0.029 0.01547,0.04 0.01557,0.086 9.3e-5,0.047 -0.0019,0.058 -0.01534,0.087 -0.01989,0.043 -0.06592,0.089 -0.106405,0.1055 -0.04244,0.017 -0.09507,0.016 -0.136314,0 z m 0.440607,-1.2075 c -0.03699,-0.013 -0.05446,-0.025 -0.08211,-0.057 -0.03996,-0.046 -0.05062,-0.076 -0.05037,-0.1401 1.6e-4,-0.042 0.0028,-0.06 0.01205,-0.082 0.01658,-0.039 0.0581,-0.085 0.09485,-0.104 0.02683,-0.014 0.03795,-0.016 0.08086,-0.016 0.04291,0 0.05403,0 0.08086,0.016 0.03678,0.019 0.07781,0.064 0.0946,0.1037 0.01722,0.041 0.01744,0.1238 4.35e-4,0.1635 -0.01674,0.039 -0.0583,0.085 -0.09427,0.1038 -0.03613,0.019 -0.10107,0.025 -0.136903,0.012 z m -0.429318,-1.2613 c -0.05635,-0.023 -0.0925,-0.058 -0.116628,-0.1151 -0.0095,-0.022 -0.01224,-0.04 -0.01232,-0.079 -9.6e-5,-0.045 0.0018,-0.055 0.01791,-0.09 0.02101,-0.046 0.05102,-0.077 0.09465,-0.099 0.02551,-0.013 0.03898,-0.015 0.0753,-0.015 0.0767,3e-4 0.135992,0.04 0.169947,0.1145 0.01607,0.035 0.01802,0.045 0.01802,0.09 0,0.06 -0.01473,0.1007 -0.05149,0.1412 -0.03655,0.04 -0.07265,0.057 -0.128189,0.059 -0.03046,0 -0.0541,-9e-4 -0.0672,-0.01 z"
       id="path5448"
       inkscape:connector-curvature="0" />
  </g>
</svg>
