<?xml version="1.0" encoding="UTF-8" standalone="no"?>
<!-- Created with Inkscape (http://www.inkscape.org/) -->

<svg
   xmlns:osb="http://www.openswatchbook.org/uri/2009/osb"
   xmlns:dc="http://purl.org/dc/elements/1.1/"
   xmlns:cc="http://creativecommons.org/ns#"
   xmlns:rdf="http://www.w3.org/1999/02/22-rdf-syntax-ns#"
   xmlns:svg="http://www.w3.org/2000/svg"
   xmlns="http://www.w3.org/2000/svg"
   xmlns:sodipodi="http://sodipodi.sourceforge.net/DTD/sodipodi-0.dtd"
   xmlns:inkscape="http://www.inkscape.org/namespaces/inkscape"
   id="svg4200"
   version="1.1"
   inkscape:version="0.91 r13725"
   width="512"
   height="512"
   viewBox="0 0 512 512"
   sodipodi:docname="Microscope.svg">
  <metadata
     id="metadata4206">
    <rdf:RDF>
      <cc:Work
         rdf:about="">
        <dc:format>image/svg+xml</dc:format>
        <dc:type
           rdf:resource="http://purl.org/dc/dcmitype/StillImage" />
        <dc:title></dc:title>
      </cc:Work>
    </rdf:RDF>
  </metadata>
  <defs
     id="defs4204">
    <linearGradient
       id="linearGradient5713"
       osb:paint="solid">
      <stop
         style="stop-color:#efefef;stop-opacity:1;"
         offset="0"
         id="stop5715" />
    </linearGradient>
    <linearGradient
       id="linearGradient5679"
       osb:paint="solid">
      <stop
         style="stop-color:#efefef;stop-opacity:1;"
         offset="0"
         id="stop5681" />
    </linearGradient>
    <filter
       inkscape:menu-tooltip="In and out glow with a possible offset and colorizable flood"
       inkscape:menu="Shadows and Glows"
       inkscape:label="Cutout Glow"
       style="color-interpolation-filters:sRGB;"
       id="filter5735">
      <feOffset
         dy="3"
         dx="3"
         id="feOffset5737" />
      <feGaussianBlur
         stdDeviation="3"
         result="blur"
         id="feGaussianBlur5739" />
      <feFlood
         flood-color="rgb(0,0,0)"
         flood-opacity="1"
         result="flood"
         id="feFlood5741" />
      <feComposite
         in="flood"
         in2="SourceGraphic"
         operator="in"
         result="composite"
         id="feComposite5743" />
      <feBlend
         in="blur"
         in2="composite"
         mode="normal"
         id="feBlend5745"
         result="fbSourceGraphic" />
      <feColorMatrix
         result="fbSourceGraphicAlpha"
         in="fbSourceGraphic"
         values="0 0 0 -1 0 0 0 0 -1 0 0 0 0 -1 0 0 0 0 1 0"
         id="feColorMatrix5747" />
      <feOffset
         id="feOffset5749"
         dy="3"
         dx="3"
         in="fbSourceGraphic" />
      <feGaussianBlur
         id="feGaussianBlur5751"
         stdDeviation="3"
         result="blur" />
      <feFlood
         id="feFlood5753"
         flood-color="rgb(0,0,0)"
         flood-opacity="1"
         result="flood" />
      <feComposite
         id="feComposite5755"
         in2="fbSourceGraphic"
         in="flood"
         operator="in"
         result="composite" />
      <feBlend
         id="feBlend5757"
         in2="composite"
         in="blur"
         mode="normal"
         result="fbSourceGraphic" />
      <feColorMatrix
         result="fbSourceGraphicAlpha"
         in="fbSourceGraphic"
         values="0 0 0 -1 0 0 0 0 -1 0 0 0 0 -1 0 0 0 0 1 0"
         id="feColorMatrix5759" />
      <feOffset
         id="feOffset5761"
         dy="3"
         dx="3"
         in="fbSourceGraphic" />
      <feGaussianBlur
         id="feGaussianBlur5763"
         stdDeviation="3"
         result="blur" />
      <feFlood
         id="feFlood5765"
         flood-color="rgb(0,0,0)"
         flood-opacity="1"
         result="flood" />
      <feComposite
         id="feComposite5767"
         in2="fbSourceGraphic"
         in="flood"
         operator="in"
         result="composite" />
      <feBlend
         id="feBlend5769"
         in2="composite"
         in="blur"
         mode="normal" />
    </filter>
    <filter
       style="color-interpolation-filters:sRGB"
       id="filter5771"
       inkscape:label="filter2">
      <feBlend
         mode="normal"
         id="feBlend5773"
         in2="SourceGraphic" />
    </filter>
    <filter
       y="-0.25"
       height="1.5"
       inkscape:menu-tooltip="Darkens the edge with an inner blur and adds a flexible glow"
       inkscape:menu="Shadows and Glows"
       inkscape:label="Dark And Glow"
       style="color-interpolation-filters:sRGB;"
       id="filter5775">
      <feGaussianBlur
         stdDeviation="5"
         result="result6"
         id="feGaussianBlur5777" />
      <feComposite
         result="result8"
         in="SourceGraphic"
         operator="atop"
         in2="result6"
         id="feComposite5779" />
      <feComposite
         result="result9"
         operator="over"
         in2="SourceAlpha"
         in="result8"
         id="feComposite5781" />
      <feColorMatrix
         values="1 0 0 0 0 0 1 0 0 0 0 0 1 0 0 0 0 0 1 0 "
         result="result10"
         id="feColorMatrix5783" />
      <feBlend
         in="result10"
         mode="normal"
         in2="result6"
         id="feBlend5785" />
    </filter>
    <filter
       y="-0.25"
       height="1.5"
       inkscape:menu-tooltip="Darkens the edge with an inner blur and adds a flexible glow"
       inkscape:menu="Shadows and Glows"
       inkscape:label="Dark And Glow"
       style="color-interpolation-filters:sRGB;"
       id="filter5799">
      <feGaussianBlur
         stdDeviation="5"
         result="result6"
         id="feGaussianBlur5801" />
      <feComposite
         result="result8"
         in="SourceGraphic"
         operator="atop"
         in2="result6"
         id="feComposite5803" />
      <feComposite
         result="result9"
         operator="over"
         in2="SourceAlpha"
         in="result8"
         id="feComposite5805" />
      <feColorMatrix
         values="1 0 0 0 0 0 1 0 0 0 0 0 1 0 0 0 0 0 1 0 "
         result="result10"
         id="feColorMatrix5807" />
      <feBlend
         in="result10"
         mode="normal"
         in2="result6"
         id="feBlend5809" />
    </filter>
  </defs>
  <sodipodi:namedview
     pagecolor="#ffffff"
     bordercolor="#666666"
     borderopacity="1"
     objecttolerance="10"
     gridtolerance="10"
     guidetolerance="10"
     inkscape:pageopacity="0"
     inkscape:pageshadow="2"
     inkscape:window-width="1366"
     inkscape:window-height="706"
     id="namedview4202"
     showgrid="false"
     inkscape:zoom="1.0488281"
     inkscape:cx="256"
     inkscape:cy="248.10804"
     inkscape:window-x="-8"
     inkscape:window-y="-8"
     inkscape:window-maximized="1"
     inkscape:current-layer="svg4200" />
  <path
     style="opacity:1;fill:#ffd42a;fill-opacity:0;fill-rule:nonzero;stroke:#d09696;stroke-width:10.61999989;stroke-miterlimit:27.79999924;stroke-dasharray:none;stroke-opacity:1;filter:url(#filter5775)"
     d="M 449.07262,241.22159 A 194.97952,197.36313 0 0 1 254.09311,438.58472 194.97952,197.36313 0 0 1 59.113597,241.22159 194.97952,197.36313 0 0 1 254.09311,43.858471 194.97952,197.36313 0 0 1 449.07262,241.22159 Z"
     id="path5670"
     inkscape:connector-curvature="0" />
  <path
     id="path4210"
     style="fill:#efefef;fill-opacity:0;stroke:#d09696;stroke-width:11.34;stroke-miterlimit:27.79999924;stroke-dasharray:none;stroke-opacity:1;filter:url(#filter5799)"
     d="m 145.83501,366.83242 c -4.82791,-1.24376 -7.68717,-3.36586 -9.76495,-7.24737 -1.17743,-2.19956 -1.33786,-3.63486 -1.35054,-12.08227 -0.0159,-10.64141 0.41723,-12.2828 4.11224,-15.58118 4.54629,-4.0583 3.07908,-3.92646 44.01206,-3.9546 l 36.67711,-0.0252 -7.22789,-3.19976 c -3.97535,-1.75986 -9.56155,-4.5621 -12.41376,-6.22719 -6.30235,-3.67923 -16.50996,-12.12604 -21.25432,-17.588 l -3.49314,-4.02147 -22.83314,0 -22.83313,0 0,-9.42969 0,-9.42969 56.98049,0 56.98049,0 0,9.42969 0,9.42969 -7.69564,0.0453 -7.69564,0.0454 3.50346,1.35458 c 12.20468,4.71881 28.40189,5.33811 41.43379,1.58419 16.79656,-4.83834 30.2224,-15.70226 36.29724,-29.37101 2.56527,-5.77193 3.58131,-10.8397 3.58131,-17.86258 0,-8.50013 -1.64733,-14.41333 -6.10692,-21.92122 l -3.38983,-5.70689 -8.22109,0.2024 c -9.68791,0.23852 -15.84973,-0.89751 -22.88894,-4.21996 -4.078,-1.92478 -12.82951,-8.64039 -14.27531,-10.95439 -0.37965,-0.60762 -0.81244,-0.98204 -0.96177,-0.83204 -0.9721,0.97645 -16.37176,22.73656 -16.35359,23.10804 0.0125,0.25386 2.48344,1.76199 5.49118,3.35138 3.00773,1.58939 5.39758,3.08704 5.31075,3.32813 -0.0869,0.24108 -3.72779,5.38488 -8.09102,11.43068 -5.17126,7.16539 -8.23165,10.89536 -8.7905,10.71373 -1.00751,-0.32742 -68.48615,-35.2646 -69.33687,-35.89928 -0.49718,-0.37091 13.51555,-20.66085 15.56228,-22.5336 0.56595,-0.51785 2.043,0.0196 6.43674,2.34223 l 5.70224,3.01429 3.58711,-4.91127 c 1.97291,-2.7012 17.18042,-23.72397 33.79447,-46.71726 20.76227,-28.73428 31.03771,-42.45344 32.86299,-43.87677 4.03072,-3.14309 10.38589,-4.13545 15.31453,-2.39138 l 2.28148,0.80734 1.51155,-2.05538 c 0.83136,-1.13046 5.29177,-7.29718 9.91203,-13.703835 4.62026,-6.40665 8.44956,-11.706574 8.50958,-11.777624 0.06,-0.07104 4.99177,2.409254 10.95946,5.511794 l 10.85035,5.64097 -6.03635,8.355405 c -3.32001,4.59547 -7.70641,10.63985 -9.74756,13.43196 -2.04117,2.7921 -3.71121,5.30709 -3.71121,5.58886 0,0.28176 0.7655,1.11743 1.7011,1.85703 3.02917,2.39458 4.47008,5.42224 4.49668,9.44849 l 0.0242,3.66624 -6.34141,8.81423 -6.34139,8.81423 5.02627,0.98895 c 8.14056,1.60173 14.06305,4.40475 20.15545,9.5393 4.1892,3.53056 5.85974,5.44492 8.0021,9.17004 2.79196,4.85463 4.71448,11.29846 4.71448,15.80173 0,3.02058 -1.61976,9.98144 -2.95009,12.67799 -0.93174,1.88861 -0.90117,1.97339 2.06014,5.71329 6.46605,8.16613 11.47932,18.34226 14.11575,28.65268 1.18563,4.63669 1.44721,7.44407 1.45689,15.63577 0.0127,10.76791 -0.81177,15.79877 -3.98846,24.33637 -7.60884,20.44929 -26.1525,38.57671 -49.33618,48.22876 l -5.56706,2.31773 33.0749,0.27735 c 36.21354,0.30365 34.69847,0.15988 38.91303,3.69263 3.78392,3.17179 4.28332,5.01619 4.29916,15.87792 0.0103,7.04672 -0.23783,10.37326 -0.86879,11.64844 -1.43175,2.89363 -4.40148,5.45866 -7.93185,6.85096 l -3.30152,1.30204 -103.48183,-0.0423 c -56.91499,-0.0233 -104.22053,-0.23255 -105.12342,-0.46515 z"
     inkscape:connector-curvature="0" />
</svg>
