<?xml version="1.0" encoding="UTF-8" standalone="no"?>
<!-- Created with Inkscape (http://www.inkscape.org/) -->

<svg
   xmlns:dc="http://purl.org/dc/elements/1.1/"
   xmlns:cc="http://creativecommons.org/ns#"
   xmlns:rdf="http://www.w3.org/1999/02/22-rdf-syntax-ns#"
   xmlns:svg="http://www.w3.org/2000/svg"
   xmlns="http://www.w3.org/2000/svg"
   xmlns:sodipodi="http://sodipodi.sourceforge.net/DTD/sodipodi-0.dtd"
   xmlns:inkscape="http://www.inkscape.org/namespaces/inkscape"
   width="16"
   height="16"
   viewBox="0 0 16 16"
   id="svg4243"
   version="1.1"
   inkscape:version="0.91 r13725"
   sodipodi:docname="gear_red.svg">
  <defs
     id="defs4245" />
  <sodipodi:namedview
     id="base"
     pagecolor="#ffffff"
     bordercolor="#666666"
     borderopacity="1.0"
     inkscape:pageopacity="0.0"
     inkscape:pageshadow="2"
     inkscape:zoom="39.5"
     inkscape:cx="-0.031719522"
     inkscape:cy="7.6377271"
     inkscape:document-units="px"
     inkscape:current-layer="layer1"
     showgrid="false"
     units="px"
     inkscape:window-width="1536"
     inkscape:window-height="801"
     inkscape:window-x="-8"
     inkscape:window-y="-8"
     inkscape:window-maximized="1" />
  <metadata
     id="metadata4248">
    <rdf:RDF>
      <cc:Work
         rdf:about="">
        <dc:format>image/svg+xml</dc:format>
        <dc:type
           rdf:resource="http://purl.org/dc/dcmitype/StillImage" />
        <dc:title></dc:title>
      </cc:Work>
    </rdf:RDF>
  </metadata>
  <g
     inkscape:label="Layer 1"
     inkscape:groupmode="layer"
     id="layer1"
     transform="translate(0,-1036.3622)">
    <ellipse
       style="opacity:1;fill:#003eff;fill-opacity:0;stroke:#ff0000;stroke-width:0.49998957;stroke-miterlimit:4;stroke-dasharray:none;stroke-opacity:1"
       id="path4158"
       cx="8.9615002"
       cy="1044.9825"
       rx="4.4555054"
       ry="4.5696254" />
    <path
       style="fill:#ff0000;fill-opacity:1"
       d="m 9.8971849,1048.051 c -0.2020709,-0.1294 -0.2037547,-0.131 -0.1951738,-0.1896 0.0048,-0.033 0.041977,-0.1452 0.082708,-0.2506 l 0.074055,-0.1917 -0.047167,-0.092 -0.047167,-0.092 -0.1794678,-0.03 c -0.098704,-0.017 -0.2056921,-0.037 -0.2377469,-0.047 l -0.058282,-0.017 -0.00458,-0.2623 -0.00458,-0.2622 0.054574,-0.025 c 0.03002,-0.014 0.1220166,-0.034 0.204441,-0.046 0.2205787,-0.032 0.2174062,-0.03 0.2664202,-0.1227 0.051665,-0.098 0.05094,-0.1048 -0.032706,-0.3263 -0.033654,-0.089 -0.06489,-0.1886 -0.069419,-0.2212 -0.00821,-0.059 -0.00639,-0.061 0.1906554,-0.1836 0.109386,-0.069 0.206801,-0.1244 0.216481,-0.1244 0.01905,0 0.165162,0.1847 0.252054,0.3186 0.05369,0.083 0.05407,0.083 0.153474,0.082 l 0.09965,0 0.09683,-0.1399 c 0.05325,-0.077 0.123343,-0.1679 0.15575,-0.2022 l 0.05892,-0.062 0.205112,0.1277 c 0.241835,0.1505 0.234896,0.1253 0.119803,0.4352 l -0.07379,0.1986 0.04505,0.087 c 0.02478,0.048 0.04731,0.09 0.05008,0.094 0.0028,0.01 0.0792,0.018 0.169863,0.031 0.09066,0.013 0.195706,0.033 0.233446,0.044 l 0.06862,0.021 0,0.267 0,0.2671 -0.04579,0.019 c -0.02518,0.01 -0.131448,0.034 -0.23614,0.05 l -0.190349,0.031 -0.04813,0.091 -0.04813,0.091 0.06153,0.1643 c 0.03385,0.09 0.07128,0.2002 0.08321,0.2441 0.02637,0.097 0.03388,0.088 -0.215065,0.2471 l -0.180934,0.1155 -0.05385,-0.057 c -0.02961,-0.032 -0.09805,-0.1234 -0.152093,-0.2035 l -0.09825,-0.1457 -0.100697,-8e-4 -0.100696,-8e-4 -0.12868,0.1801 c -0.07077,0.099 -0.142468,0.1897 -0.159322,0.2014 -0.02577,0.018 -0.06307,4e-4 -0.2344738,-0.1093 z m 0.7911131,-0.7679 c 0.08969,-0.045 0.19791,-0.1843 0.224211,-0.2882 0.02451,-0.097 0.01365,-0.2395 -0.02444,-0.3211 -0.01439,-0.031 -0.05237,-0.085 -0.08441,-0.1205 -0.161774,-0.1791 -0.39003,-0.1839 -0.562425,-0.012 -0.09023,0.09 -0.127234,0.1865 -0.127685,0.3326 -5.76e-4,0.1871 0.07021,0.3149 0.224181,0.4049 0.08629,0.05 0.254622,0.053 0.350569,0.01 z m -3.4230284,0.01 c -0.011691,-0.016 -0.038311,-0.1534 -0.059156,-0.306 -0.020834,-0.1527 -0.040539,-0.2805 -0.043768,-0.2841 -0.023381,-0.026 -0.2411304,-0.1131 -0.2544611,-0.102 -0.2049728,0.1719 -0.357499,0.295 -0.3870835,0.3124 -0.055991,0.033 -0.1041387,0 -0.3053913,-0.2313 -0.2102586,-0.2381 -0.2650668,-0.3113 -0.2650668,-0.3545 0,-0.018 0.068236,-0.1298 0.1516396,-0.249 l 0.1516395,-0.2168 -0.05695,-0.1495 -0.05695,-0.1495 -0.1737781,-0.03 c -0.095581,-0.017 -0.2092814,-0.037 -0.2526729,-0.044 -0.1302086,-0.022 -0.1292474,-0.018 -0.1292474,-0.4424 0,-0.3355 0.00309,-0.3768 0.029743,-0.4036 0.019246,-0.019 0.1118042,-0.043 0.2622587,-0.068 0.1278812,-0.021 0.2423528,-0.044 0.2543823,-0.051 0.012032,-0.01 0.043832,-0.071 0.070655,-0.1415 l 0.048787,-0.1282 -0.04104,-0.065 c -0.022571,-0.036 -0.089933,-0.1317 -0.1496754,-0.2128 -0.1547429,-0.2101 -0.1543379,-0.2126 0.075408,-0.4772 0.1734616,-0.1998 0.311406,-0.3247 0.3585104,-0.3247 0.011445,0 0.1113449,0.078 0.2220089,0.1733 l 0.2012067,0.1733 0.1206515,-0.056 c 0.06636,-0.031 0.1225485,-0.057 0.1248653,-0.06 0.00234,0 0.015037,-0.095 0.028262,-0.2058 0.03374,-0.2832 0.052112,-0.3617 0.093418,-0.3987 0.031352,-0.028 0.075333,-0.033 0.3414051,-0.033 0.3019416,0 0.3782596,0.013 0.3965404,0.065 0.00448,0.013 0.02498,0.1485 0.045569,0.3013 l 0.037448,0.278 0.059412,0.021 c 0.032674,0.012 0.086321,0.037 0.1192033,0.054 l 0.059785,0.034 0.1953071,-0.1639 c 0.10742,-0.09 0.2101382,-0.1692 0.2282634,-0.1756 0.045153,-0.016 0.097052,0.025 0.2697878,0.211 0.1718492,0.1853 0.2777282,0.3312 0.2777282,0.3827 0,0.02 -0.066296,0.1346 -0.1473139,0.2543 l -0.147315,0.2176 0.049213,0.1312 c 0.027068,0.072 0.055629,0.1387 0.063462,0.148 0.00778,0.01 0.1245871,0.035 0.2594442,0.058 0.329382,0.055 0.3088314,0.021 0.3022635,0.4902 -0.0033,0.239 -0.011573,0.3716 -0.023903,0.3852 -0.02304,0.026 -0.090519,0.042 -0.3446149,0.083 l -0.1969024,0.032 -0.041849,0.1034 c -0.023019,0.057 -0.047892,0.1203 -0.055277,0.141 -0.010891,0.03 0.016134,0.079 0.1430075,0.2564 0.086043,0.1204 0.156433,0.2335 0.156433,0.2513 0,0.042 -0.053231,0.1145 -0.2401074,0.3278 -0.1837412,0.2098 -0.2790327,0.2839 -0.3348841,0.2604 -0.021388,-0.01 -0.1199355,-0.087 -0.2189984,-0.1741 -0.1173628,-0.1026 -0.1888149,-0.1534 -0.20509,-0.1457 -0.013737,0.01 -0.069941,0.03 -0.1248845,0.053 l -0.099908,0.041 -0.018649,0.1544 c -0.035413,0.2933 -0.059508,0.4222 -0.084019,0.4494 -0.037224,0.041 -0.7077887,0.04 -0.7387607,0 z m 0.6084594,-1.3698 c 0.1262954,-0.042 0.2256024,-0.1104 0.3379661,-0.2308 0.1630423,-0.1747 0.2404079,-0.3796 0.2401703,-0.636 -2.462e-4,-0.2666 -0.072062,-0.4604 -0.2390482,-0.645 -0.1646856,-0.182 -0.3365913,-0.2618 -0.5669775,-0.2633 -0.2454433,0 -0.4136298,0.075 -0.5901882,0.2694 -0.2573364,0.283 -0.3137612,0.6976 -0.1451091,1.0663 0.050279,0.1099 0.2281281,0.3096 0.3248006,0.3647 0.1958698,0.1117 0.442805,0.1405 0.638386,0.075 z m 2.0229849,-1.5114 c -0.2282335,-0.1487 -0.2244727,-0.1342 -0.113829,-0.4378 l 0.073362,-0.2013 -0.050279,-0.093 -0.050279,-0.093 -0.169315,-0.022 c -0.09312,-0.012 -0.1981407,-0.034 -0.2333712,-0.047 l -0.064058,-0.025 -0.00458,-0.2611 -0.00458,-0.2611 0.046251,-0.02 c 0.025438,-0.011 0.1326053,-0.034 0.2381497,-0.05 l 0.1919001,-0.03 0.050386,-0.094 0.050386,-0.094 -0.072573,-0.1923 c -0.039921,-0.1058 -0.074012,-0.2206 -0.07577,-0.2551 -0.00352,-0.069 0.00277,-0.074 0.2798451,-0.2429 l 0.1219614,-0.074 0.06197,0.07 c 0.03408,0.038 0.103095,0.13 0.153357,0.2035 l 0.09138,0.1336 0.09715,0 0.09715,0 0.123152,-0.1704 c 0.194262,-0.269 0.156689,-0.2583 0.392315,-0.1116 0.110763,0.069 0.204613,0.1345 0.208554,0.1457 0.008,0.023 -0.04373,0.1948 -0.113452,0.3771 l -0.04625,0.1209 0.05182,0.091 0.05184,0.091 0.198645,0.032 c 0.109254,0.018 0.214056,0.041 0.232893,0.052 0.03213,0.019 0.03425,0.037 0.03425,0.2854 l 0,0.2652 -0.112397,0.028 c -0.06182,0.015 -0.166169,0.034 -0.231892,0.041 l -0.119495,0.013 -0.05265,0.094 -0.05265,0.094 0.06824,0.1851 c 0.08124,0.2204 0.101272,0.2938 0.08691,0.3183 -0.0059,0.01 -0.09924,0.074 -0.207466,0.143 l -0.196779,0.1247 -0.05036,-0.053 c -0.0277,-0.029 -0.09878,-0.1213 -0.157965,-0.205 l -0.107607,-0.1521 -0.09485,3e-4 -0.09485,3e-4 -0.141536,0.1979 c -0.07785,0.1087 -0.152776,0.1996 -0.166514,0.2018 -0.01374,0 -0.111148,-0.052 -0.2164681,-0.1206 z m 0.7934851,-0.7707 c 0.07241,-0.038 0.161559,-0.133 0.19787,-0.2107 0.0381,-0.082 0.04895,-0.2241 0.02444,-0.3211 -0.02574,-0.1017 -0.129471,-0.2368 -0.22205,-0.2891 -0.09491,-0.053 -0.246373,-0.053 -0.346043,-3e-4 -0.1487,0.08 -0.231233,0.2241 -0.231233,0.4047 0,0.1362 0.03112,0.2295 0.104917,0.3146 0.125452,0.1448 0.313247,0.1854 0.472102,0.1019 z"
       id="path4277"
       inkscape:connector-curvature="0" />
  </g>
</svg>
