<?xml version="1.0" encoding="UTF-8" standalone="no"?>
<!-- Created with Inkscape (http://www.inkscape.org/) -->

<svg
   xmlns:dc="http://purl.org/dc/elements/1.1/"
   xmlns:cc="http://creativecommons.org/ns#"
   xmlns:rdf="http://www.w3.org/1999/02/22-rdf-syntax-ns#"
   xmlns:svg="http://www.w3.org/2000/svg"
   xmlns="http://www.w3.org/2000/svg"
   xmlns:sodipodi="http://sodipodi.sourceforge.net/DTD/sodipodi-0.dtd"
   xmlns:inkscape="http://www.inkscape.org/namespaces/inkscape"
   id="svg3336"
   version="1.1"
   inkscape:version="0.91 r13725"
   width="16"
   height="16"
   viewBox="0 0 16 16"
   sodipodi:docname="microscopesyo_red.svg">
  <metadata
     id="metadata3342">
    <rdf:RDF>
      <cc:Work
         rdf:about="">
        <dc:format>image/svg+xml</dc:format>
        <dc:type
           rdf:resource="http://purl.org/dc/dcmitype/StillImage" />
        <dc:title></dc:title>
      </cc:Work>
    </rdf:RDF>
  </metadata>
  <defs
     id="defs3340" />
  <sodipodi:namedview
     pagecolor="#ffffff"
     bordercolor="#666666"
     borderopacity="1"
     objecttolerance="10"
     gridtolerance="10"
     guidetolerance="10"
     inkscape:pageopacity="0"
     inkscape:pageshadow="2"
     inkscape:window-width="1536"
     inkscape:window-height="801"
     id="namedview3338"
     showgrid="false"
     inkscape:zoom="39.5"
     inkscape:cx="0.39240508"
     inkscape:cy="8"
     inkscape:window-x="-8"
     inkscape:window-y="-8"
     inkscape:window-maximized="1"
     inkscape:current-layer="svg3336" />
  <path
     style="fill:#ff0000;fill-opacity:1;stroke:none;stroke-opacity:1"
     d="M 6.9451208,11.418936 C 6.7616483,11.337932 6.6924386,11.22205 6.6765743,10.969292 l -0.013205,-0.21039 -0.5149995,-0.167633 -0.5149996,-0.167632 -0.014367,-0.0947 c -0.018386,-0.12118 0.011832,-0.223679 0.082748,-0.28069 0.053354,-0.04289 0.1171101,-0.0453 1.3624448,-0.051502 l 1.3064716,-0.0065 0.091874,0.081585 c 0.086047,0.07641 0.091368,0.08997 0.083914,0.213766 l -0.00796,0.132181 -0.5642059,0.183532 c -0.3103095,0.100938 -0.5772029,0.195072 -0.5930926,0.209182 -0.020913,0.01857 0.4654582,0.02399 1.7615567,0.01962 l 1.7904475,-0.006 -0.0031,-0.433873 C 10.928383,10.151584 10.914899,9.8886047 10.90016,9.8058152 10.850225,9.5253156 10.703361,9.2041106 10.503584,8.938445 L 10.394857,8.7938592 10.514261,8.6805019 c 0.119322,-0.113279 0.2559,-0.3206331 0.2559,-0.3885107 0,-0.056464 0.03302,-0.042172 0.121609,0.052636 0.24866,0.2661145 0.482255,0.6443309 0.604215,0.9782934 0.12306,0.3369757 0.154694,0.5805331 0.156899,1.2080124 0.0019,0.558994 3.2e-4,0.577653 -0.0606,0.687535 -0.03934,0.07095 -0.102446,0.136353 -0.169726,0.175895 l -0.107103,0.06295 -2.1279646,0.0061 -2.1279647,0.0061 -0.1144049,-0.05058 z M 7.4516906,9.2551142 C 7.1177148,9.0320175 7.0902228,8.9724264 7.2179841,8.7485368 c 0.036315,-0.063637 0.066026,-0.1209789 0.066026,-0.1274267 0,-0.00645 -0.053481,-0.065196 -0.118846,-0.1305516 -0.097524,-0.09751 -0.1188461,-0.1351851 -0.1188461,-0.209996 0,-0.086109 0.069636,-0.164469 1.2550055,-1.4122348 0.7412668,-0.7802868 1.2899285,-1.3380889 1.3403192,-1.3626489 0.1010882,-0.04927 0.1820907,-0.037234 0.3040469,0.045175 l 0.086681,0.058574 0.09251,-0.072126 c 0.155542,-0.1212736 0.218713,-0.1053248 0.539643,0.1362447 0.357262,0.2689171 0.396154,0.3090235 0.396154,0.4085224 0,0.05292 -0.02169,0.1182212 -0.0517,0.1556473 l -0.0517,0.064477 0.08925,0.076819 c 0.107611,0.092621 0.131594,0.1636712 0.08712,0.2580998 -0.01834,0.038949 -0.168401,0.2128803 -0.33346,0.3865141 l -0.300107,0.3156975 -0.09605,-0.068259 C 9.7824904,6.8293491 8.8480779,7.164636 8.7061159,7.8803112 8.6528141,8.1490235 8.7764077,8.476419 9.0084484,8.6811792 L 9.1240673,8.7832049 8.8740055,9.0457417 C 8.5291018,9.4078521 8.4683076,9.4238596 8.193347,9.2249615 L 8.0410627,9.1148037 7.946446,9.210278 C 7.7665336,9.3918222 7.6695057,9.4006152 7.4516906,9.2551142 Z M 9.4844853,8.7064411 C 9.0567394,8.5707356 8.8388406,8.1577625 8.9870946,7.7637603 9.0536446,7.586894 9.2759777,7.38867 9.4729756,7.3305654 9.6588529,7.2757414 9.971752,7.2892134 10.12311,7.3585584 c 0.148069,0.067838 0.292213,0.1991679 0.375307,0.341943 0.0589,0.1011993 0.07104,0.1532105 0.07224,0.3092791 0.0012,0.15925 -0.0097,0.2076949 -0.07198,0.3203749 C 10.312859,8.6661536 9.8724938,8.8295391 9.484486,8.706441 Z"
     id="path3346"
     inkscape:connector-curvature="0" />
  <ellipse
     style="fill:#003eff;fill-opacity:0;stroke:#ff0000;stroke-opacity:1;opacity:1;stroke-width:0.5;stroke-miterlimit:4;stroke-dasharray:none"
     id="path4158"
     cx="8.9620256"
     cy="8.6202536"
     rx="4.4556961"
     ry="4.5696201" />
</svg>
