<?xml version="1.0" encoding="UTF-8" standalone="no"?>
<!-- Created with Inkscape (http://www.inkscape.org/) -->

<svg
   xmlns:dc="http://purl.org/dc/elements/1.1/"
   xmlns:cc="http://creativecommons.org/ns#"
   xmlns:rdf="http://www.w3.org/1999/02/22-rdf-syntax-ns#"
   xmlns:svg="http://www.w3.org/2000/svg"
   xmlns="http://www.w3.org/2000/svg"
   xmlns:sodipodi="http://sodipodi.sourceforge.net/DTD/sodipodi-0.dtd"
   xmlns:inkscape="http://www.inkscape.org/namespaces/inkscape"
   width="16"
   height="16"
   viewBox="0 0 16 16"
   id="svg3397"
   version="1.1"
   inkscape:version="0.91 r13725"
   sodipodi:docname="bulbs.svg">
  <defs
     id="defs3399" />
  <sodipodi:namedview
     id="base"
     pagecolor="#ffffff"
     bordercolor="#666666"
     borderopacity="1.0"
     inkscape:pageopacity="0.0"
     inkscape:pageshadow="2"
     inkscape:zoom="39.5"
     inkscape:cx="8"
     inkscape:cy="8"
     inkscape:document-units="px"
     inkscape:current-layer="layer1"
     showgrid="false"
     units="px"
     inkscape:window-width="1536"
     inkscape:window-height="801"
     inkscape:window-x="-8"
     inkscape:window-y="-8"
     inkscape:window-maximized="1" />
  <metadata
     id="metadata3402">
    <rdf:RDF>
      <cc:Work
         rdf:about="">
        <dc:format>image/svg+xml</dc:format>
        <dc:type
           rdf:resource="http://purl.org/dc/dcmitype/StillImage" />
        <dc:title />
      </cc:Work>
    </rdf:RDF>
  </metadata>
  <g
     inkscape:label="Layer 1"
     inkscape:groupmode="layer"
     id="layer1"
     transform="translate(0,-1036.3622)">
    <g
       id="icon1">
      <ellipse
         ry="4.4380336"
         rx="4.4590335"
         cy="1045.1177"
         cx="8.9615002"
         id="blueCirc"
         style="opacity:1;fill:#003eff;fill-opacity:0;stroke:#003eff;stroke-width:0.49293292;stroke-miterlimit:4;stroke-dasharray:none;stroke-opacity:1" />
      <path
         inkscape:connector-curvature="0"
         id="blueBulb"
         d="m 8.7216123,1048.2225 c -0.059668,-0.045 -0.1516248,-0.1286 -0.2043486,-0.1854 l -0.095861,-0.1034 0.6090722,0 0.6090721,0 -0.1626878,0.1497 c -0.2218652,0.2042 -0.2527419,0.2189 -0.4631693,0.2201 -0.1593849,8e-4 -0.197894,-0.01 -0.2920772,-0.081 z m -0.4157368,-0.5585 c -0.082827,-0.084 -0.086059,-0.1398 -0.012644,-0.2151 0.052587,-0.054 0.092722,-0.057 0.7328359,-0.057 0.6207352,0 0.6810408,0 0.7232387,0.052 0.065707,0.075 0.058114,0.1927 -0.015787,0.2458 -0.051665,0.037 -0.1684264,0.045 -0.7105945,0.045 l -0.6487716,0 -0.068278,-0.07 z m -0.052793,-0.5638 c -0.059408,-0.086 -0.054587,-0.1272 0.024976,-0.2088 l 0.068278,-0.07 0.6619154,5e-4 c 0.7382211,4e-4 0.7952256,0.012 0.8094557,0.1606 0.016911,0.1769 -0.00199,0.1812 -0.8016467,0.1812 -0.7121576,0 -0.7201268,-7e-4 -0.7629774,-0.063 z m -0.1408657,-0.6139 c -0.054994,-0.3536 -0.1309279,-0.5407 -0.4314587,-1.0632 -0.3968734,-0.69 -0.5087857,-1.0245 -0.505527,-1.5106 0.00117,-0.1743 0.020318,-0.371 0.045809,-0.4706 0.2073057,-0.8099 0.9031917,-1.3262 1.7874334,-1.3262 0.5767514,0 1.0174871,0.1729 1.3735471,0.5389 0.426097,0.4378 0.585033,1.0255 0.454221,1.6797 -0.06056,0.3029 -0.161866,0.5377 -0.469266,1.0881 -0.28715,0.514 -0.3944566,0.7718 -0.4222263,1.014 l -0.017983,0.1569 -0.2187052,0 c -0.2512239,0 -0.238131,0.023 -0.1793921,-0.3146 0.051408,-0.2953 0.1733773,-0.5931 0.4217353,-1.0295 0.3820675,-0.6713 0.4847255,-0.9514 0.4847255,-1.3225 0,-0.3961 -0.126065,-0.7097 -0.388384,-0.9663 -0.2709781,-0.265 -0.6013496,-0.3935 -1.0165373,-0.3955 -0.7401809,0 -1.2965379,0.4457 -1.4050579,1.1345 -0.069972,0.4441 0.036436,0.7982 0.4581517,1.525 0.3042677,0.5242 0.46028,0.9463 0.46028,1.2451 l 0,0.1238 -0.2073662,0 -0.2073659,0 -0.016634,-0.107 z m 0.6940588,-0.9365 c 0.1252138,-0.4405 0.2380106,-0.8541 0.2380106,-0.8726 0,-0.012 -0.1389055,-0.025 -0.3086788,-0.029 l -0.3086789,-0.01 0.4781635,-0.6845 c 0.469457,-0.6719 0.5806658,-0.819 0.5500975,-0.7272 -0.00784,0.023 -0.067567,0.2353 -0.1327346,0.4706 -0.065168,0.2353 -0.1242929,0.4434 -0.1313902,0.4624 -0.0095,0.025 0.063451,0.037 0.2767328,0.043 l 0.2896366,0.01 -0.4812067,0.7243 c -0.2646639,0.3984 -0.4876316,0.7309 -0.4954841,0.739 -0.00786,0.01 0.00363,-0.049 0.025532,-0.1254 z"
         style="fill:#003eff;fill-opacity:1" />
    </g>
  </g>
</svg>
